<?xml version="1.0" standalone="no"?>
<!DOCTYPE svg PUBLIC "-//W3C//DTD SVG 1.1//EN" "http://www.w3.org/Graphics/SVG/1.1/DTD/svg11.dtd" >
<!--
2013-9-30: Created.
-->
<svg>
<metadata>
Created by iconfont
</metadata>
<defs>

<font id="iconfont" horiz-adv-x="1024" >
  <font-face
    font-family="iconfont"
    font-weight="500"
    font-stretch="normal"
    units-per-em="1024"
    ascent="896"
    descent="-128"
  />
    <missing-glyph />
    
    <glyph glyph-name="zidian" unicode="&#59001;" d="M791.599-9.676c-32.010 0-58.051 26.050-58.051 58.071 0 31.938 26.041 57.922 58.051 57.922 13.972 0 25.34 11.368 25.34 25.343 0 0.677-0.035 1.267-0.074 1.786v670.185c0 13.953-11.367 25.304-25.34 25.304l-474.66-0c-60.037 0-108.881-48.835-108.881-108.862v-671.489c0-60.049 48.843-108.901 108.881-108.901h474.733c13.972 0 25.34 11.352 25.34 25.303 0 13.972-11.367 25.339-25.34 25.339zM342.207 778.291h424.033v-620.847h-424.033v620.847zM258.647 720.072c0 22.852 13.050 42.975 32.917 52.488v-618.088c-11.74-2.793-22.832-7.482-32.917-13.89v579.49zM699.718-9.676h-382.852c-32.102 0-58.219 26.134-58.219 58.259 0 32.123 26.117 58.257 58.219 58.257h383.159c-11.126-17.339-17.103-37.506-17.103-58.444 0-20.784 5.869-40.822 16.796-58.072z"  horiz-adv-x="1024" />

    
    <glyph glyph-name="Chart" unicode="&#58887;" d="M442.774184-128c-244.168349 0-442.774184 198.605835-442.774184 442.774184s198.605835 442.774184 442.774184 442.774184a27.676307 27.676307 0 0 0 0-55.352614c-213.653147 0-387.456618-173.815153-387.456618-387.456618s173.850201-387.409887 387.456618-387.409887 387.503349 173.826836 387.503348 387.479983a27.676307 27.676307 0 0 0 55.352615 0c0-244.168349-198.687613-442.809232-442.855963-442.809232zM996.335376 287.15629H442.774184a27.664624 27.664624 0 0 0-27.676307 27.676307V868.323693A27.664624 27.664624 0 0 0 442.774184 896c320.456355 0 581.190768-260.72273 581.190768-581.190768a27.664624 27.664624 0 0 0-27.629576-27.652942z m-525.838154 55.352615h497.437519c-14.019235 267.942636-229.4832 483.476697-497.437519 497.449202z"  horiz-adv-x="1024" />

    
    <glyph glyph-name="guanggaowei" unicode="&#58880;" d="M142.705295 385.534466l-24.551449 0q-8.183816 0-14.321678 0.511489t-14.321678 0.511489l-25.574426 0 0 429.65035q0 32.735265 23.016983 55.752248t55.752248 23.016983l742.681319 0q16.367632 0 31.200799-6.137862t25.574426-16.879121 16.879121-25.062937 6.137862-30.689311l0-429.65035-23.528472 0q-9.206793 0-15.856144-0.511489t-14.833167-0.511489l-25.574426 0-742.681319 0zM973.362637 316.995005q17.390609 0 28.643357-6.137862t11.252747-20.45954-9.718282-24.551449-30.177822-10.22977l-921.702298 0q-20.45954 0-30.177822 9.718282t-9.718282 20.971029q0 14.321678 10.741259 22.505495t29.154845 8.183816l921.702298 0zM451.644356 190.145854l128.895105 0 0-256.767233q0-29.666334-20.45954-45.522478t-46.033966-15.856144q-27.62038 0-45.010989 18.925075t-17.390609 45.522478l0 22.505495 0 231.192807z"  horiz-adv-x="1024" />

    
    <glyph glyph-name="tupian" unicode="&#58919;" d="M939.690667-20.759273c0-17.097697-13.963636-31.030303-31.030303-31.030303H99.917576c-17.128727 0-31.030303 13.932606-31.030303 31.030303v806.787879c0 17.066667 13.901576 31.030303 31.030303 31.030303h808.711757c17.066667 0 31.030303-13.963636 31.030303-31.030303v-806.787879z m-31.030303 899.878788H99.917576c-51.355152 0-93.090909-41.766788-93.090909-93.090909v-806.787879c0-51.324121 41.735758-93.090909 93.090909-93.090909h808.711757c51.324121 0 93.090909 41.766788 93.090909 93.090909v806.787879c0 51.324121-41.766788 93.090909-93.090909 93.090909zM321.008485 640.558545a73.75903 73.75903 0 0 0 73.69697-73.696969 73.75903 73.75903 0 0 0-73.69697-73.69697 73.75903 73.75903 0 0 0-73.69697 73.69697 73.75903 73.75903 0 0 0 73.69697 73.696969m0-209.454545a135.912727 135.912727 0 0 1 135.757576 135.757576 135.912727 135.912727 0 0 1-135.757576 135.757576 135.912727 135.912727 0 0 1-135.757576-135.757576 135.912727 135.912727 0 0 1 135.757576-135.757576M866.924606 215.133091l-121.700848 121.700848-0.155152-0.155151a30.595879 30.595879 0 0 1-43.287273 0.155151l-0.217212 0.217213-283.151515-277.317819 0.217212-0.217212a30.75103 30.75103 0 1 1 43.008-43.907879l0.217212-0.217212 261.213091 255.844849 99.979637-99.979637 0.186181 0.155152a30.782061 30.782061 0 0 1 43.535516 43.566545l0.155151 0.155152zM411.67903 134.144a30.782061 30.782061 0 0 1 21.752243 52.565333l0.186182 0.155152-90.670546 90.670545-0.155151-0.155151a30.564848 30.564848 0 0 1-43.070061 0.310303l-0.248242 0.248242-159.030303-153.196606 0.527515-0.558545a30.844121 30.844121 0 0 1 21.752242-52.596364 30.564848 30.564848 0 0 1 22.465939 10.053818l135.416243 130.482425 69.135515-69.135516 0.155152 0.186182a30.72 30.72 0 0 1 21.783272-9.029818"  horiz-adv-x="1024" />

    
    <glyph glyph-name="peizhi" unicode="&#58935;" d="M1015.66658 270.098419L1169.294997 429.420793l-105.297557 133.713119s-51.21851-36.983614-54.051932-31.289656c-17.081875 179.237671-207.693905 230.469738-207.693906 230.469739V787.896136L697.035388 896l-73.980786-79.661187 88.202125-113.797823 14.221339-5.680401 25.609255-96.743062s-77.668302-69.764546-175.57727-157.641301l-91.848969 95.061988-59.745891 5.680402 31.289657 193.472567s-108.117421 147.934458-150.781438 145.060364-116.590574-34.136635-116.590573-34.136635l93.882526-99.576484-2.846979-62.59287-82.508167-85.409373-39.830593-2.833422S51.286295 694.000053 36.983614 694.000053 0 565.967335 0 565.967335s73.967229-82.508166 93.882526-108.103865S176.390692 406.590732 176.390692 406.590732s165.016333 51.286295 156.475396 42.745358 22.762276-68.273271 22.762275-68.273271l69.642533-73.343605c-125.104397-112.130306-239.376716-214.309743-243.186246-216.912695-8.540937-5.693958 0-62.59287 0-62.592869s110.950843-133.713119 116.590574-142.254057 62.59287 2.846979 62.59287 2.846979l220.654439 253.950538 90.059439-94.899305c-0.244027-3.673959-0.555839-7.334361-0.555839-11.089661a163.484387 163.484387 0 1 1 137.698891 160.162911l1.748858 2.047114-94.804405 98.098766 154.550296 177.86841 65.426291-22.762276-31.289656-65.439849z m-88.188567-233.289604a93.896083 93.896083 0 1 0-93.882526 93.896083 93.896083 93.896083 0 0 0 93.882526-93.896083z"  horiz-adv-x="1172" />

    
    <glyph glyph-name="navicon-jsgl" unicode="&#58944;" d="M508.928 349.696c-120.32 0-218.112 97.792-218.112 218.112s97.792 218.112 218.112 218.112S727.04 688.1279999999999 727.04 567.808s-97.792-218.112-218.112-218.112z m0 385.024c-92.16 0-166.912-74.752-166.912-166.912s74.752-166.912 166.912-166.912S675.84 475.648 675.84 567.808s-74.752 166.912-166.912 166.912zM851.456 11.26400000000001c-14.336 0-25.6 11.264-25.6 25.6 0 167.936-136.704 304.64-304.64 304.64S216.576 204.79999999999995 216.576 36.86400000000003c0-14.336-11.264-25.6-25.6-25.6s-25.6 11.264-25.6 25.6c0 196.096 159.744 355.84 355.84 355.84s355.84-159.744 355.84-355.84c0-14.336-11.264-25.6-25.6-25.6zM293.888 444.928C194.048 444.928 112.64 525.8240000000001 112.64 625.664c0 99.84 80.896 180.736 180.736 180.736 42.496 0 83.456-14.848 115.2-41.472l-32.768-38.912c-22.016 18.432-52.224 29.184-82.432 29.184-71.68 0-129.536-57.856-129.536-129.536s58.368-129.536 130.048-129.536v-51.2zM35.84 169.98400000000004c-14.336 0-25.6 11.264-25.6 25.6 0 161.792 131.584 293.376 293.376 293.376 14.336 0 25.6-11.264 25.6-25.6s-11.264-25.6-25.6-25.6c-133.632 0-242.176-108.544-242.176-242.176 0-14.336-11.264-25.6-25.6-25.6zM736.768 437.76v51.2c71.68 0 129.536 57.856 129.536 129.536s-57.856 129.536-129.536 129.536c-30.72 0-59.392-10.24-82.432-29.184l-32.768 39.424c32.256 27.136 72.192 41.472 115.2 41.472 99.84 0 180.736-80.896 180.736-180.736 0-100.352-80.896-181.248-180.736-181.248zM994.304 169.98400000000004c-14.336 0-25.6 11.264-25.6 25.6 0 133.632-108.544 242.176-242.176 242.176-14.336 0-25.6 11.264-25.6 25.6s11.264 25.6 25.6 25.6c161.792 0 293.376-131.584 293.376-293.376 0-14.336-11.264-25.6-25.6-25.6z"  horiz-adv-x="1024" />

    
    <glyph glyph-name="lanmu" unicode="&#58895;" d="M447.021033 831.584902 63.367183 831.584902l0-383.652827 383.652827 0L447.021033 831.584902 447.021033 831.584902zM383.063374 511.890757l-254.713131 0L128.350243 767.598589l254.712107 0L383.063374 511.890757 383.063374 511.890757zM575.320108-64.022898l384.677205 0L959.997314 319.630952 575.320108 319.630952 575.320108-64.022898 575.320108-64.022898zM63.367183-64.022898l384.676182 0L448.043365 319.630952 63.367183 319.630952 63.367183-64.022898zM128.34922 255.671247l253.689775 0 0-255.704762-253.689775 0L128.34922 255.671247zM575.320108 831.584902l0-383.652827 384.677205 0L959.997314 831.584902 575.320108 831.584902zM893.963267 511.890757 639.279814 511.890757 639.279814 767.598589l254.683453 0L893.963267 511.890757 893.963267 511.890757z"  horiz-adv-x="1025" />

    
    <glyph glyph-name="xitongrizhi" unicode="&#58923;" d="M512 896C229.627709 896 0 666.372291 0 384S229.627709-128 512-128 1024 101.627709 1024 384 794.372291 896 512 896z m0-996.655196c-267.269721 0-484.655196 217.385475-484.655196 484.655196s217.385475 484.655196 484.655196 484.655196 484.655196-217.385475 484.655196-484.655196-217.385475-484.655196-484.655196-484.655196zM629.273743 329.996872h47.138324c14.530503 0.572067 25.85743 12.013408 26.429497 26.429497 0.228827 7.322458-2.288268 14.416089-7.322458 19.793519-5.03419 5.37743-11.784581 8.581006-19.335866 8.809833h-47.138324c-14.301676-0.457654-25.971844-12.127821-26.54391-26.429498-0.228827-7.322458 2.288268-14.416089 7.322458-19.793519 5.148603-5.37743 12.013408-8.581006 19.450279-8.809832zM486.600223 478.963128c-7.322458-0.228827-14.187263-3.432402-19.221452-8.809832s-7.551285-12.471061-7.322458-19.793519c0.572067-14.873743 12.814302-26.543911 27.344804-26.543911h48.168045c14.530503 0.572067 25.85743 12.013408 26.429497 26.429497 0.34324 7.322458-2.288268 14.416089-7.322458 19.79352-5.03419 5.37743-11.784581 8.581006-19.335866 8.809832h-48.740112z m68.533632-101.141452c-5.37743 5.03419-12.699888 7.436872-19.679106 7.322458h-47.138324c-14.301676-0.457654-25.971844-12.127821-26.543911-26.429497-0.228827-7.322458 2.288268-14.416089 7.322458-19.79352 5.03419-5.37743 11.784581-8.581006 19.335866-8.809832h48.968939c7.322458 0.228827 14.187263 3.432402 19.221452 8.809832s7.551285 12.471061 7.322458 19.79352c-0.228827 7.208045-3.432402 14.072849-8.809832 19.107039z m54.804022 265.439106h-55.147262v-50.799553h55.147262v50.799553z m42.905028-102.05676c15.216983 0 27.573631 12.356648 27.573631 27.573632v93.818994c0 15.216983-12.471061 27.573631-27.573631 27.573631-15.216983 0-27.573631-12.356648-27.573631-27.573631v-93.818994c0-15.216983 12.356648-27.573631 27.573631-27.573632zM629.273743 236.063464h47.023911c15.216983 0 27.573631 12.471061 27.573631 27.573631 0 15.216983-12.356648 27.573631-27.573631 27.573631h-46.909498c-15.10257 0-27.573631-12.356648-27.573631-27.573631-0.114413-15.10257 12.242235-27.573631 27.459218-27.573631z m-19.335866 196.676648c5.03419-5.37743 11.784581-8.581006 19.335866-8.809833h47.138324c14.530503 0.572067 25.85743 12.013408 26.429497 26.429498 0.228827 7.322458-2.288268 14.416089-7.322458 19.793519-5.03419 5.37743-11.784581 8.581006-19.335866 8.809832h-47.138324c-14.530503-0.572067-25.85743-12.013408-26.429497-26.429497-0.228827-7.436872 2.402682-14.416089 7.322458-19.793519zM535.454749 291.210726h-46.909498c-15.10257 0-27.573631-12.356648-27.573631-27.573631s12.356648-27.573631 27.573631-27.573631h46.909498c15.216983 0 27.573631 12.471061 27.573631 27.573631 0 15.216983-12.356648 27.573631-27.573631 27.573631zM371.271508 541.204022c15.216983 0 27.573631 12.356648 27.573632 27.573632v93.818994c0 15.216983-12.356648 27.573631-27.573632 27.573631s-27.573631-12.356648-27.573631-27.573631v-93.818994c-0.114413-15.216983 12.356648-27.573631 27.573631-27.573632z m-25.51419-62.240894c-15.216983-0.572067-27.001564-13.386369-26.429497-28.603351 0.572067-14.873743 12.814302-26.543911 27.344805-26.543911h48.168044c14.530503 0.572067 25.85743 12.013408 26.429498 26.429497 0.228827 7.322458-2.288268 14.416089-7.322459 19.79352-5.03419 5.37743-11.784581 8.581006-19.335865 8.809832h-48.854526z m400.904581 164.297654H695.63352v-50.799553h41.188826c5.263017 0 9.610726-4.347709 9.610727-9.610726v-404.794637c0-5.263017-4.347709-9.610726-9.610727-9.610726H286.147933c-5.263017 0-9.610726 4.347709-9.610726 9.610726V582.850503c0 5.263017 4.347709 9.610726 9.610726 9.610726H328.36648v50.799553h-51.028379c-28.145698 0-51.02838-22.882682-51.02838-51.02838v-422.299888c0-28.145698 22.882682-51.02838 51.02838-51.02838h469.323798c28.145698 0 51.02838 22.882682 51.02838 51.02838v422.185475c0 28.145698-22.882682 51.142793-51.02838 51.142793z m-277.452514 0h-55.147262v-50.799553h55.147262v50.799553z m42.790615-102.05676c15.216983 0 27.573631 12.356648 27.573631 27.573632v93.818994c-0.114413 15.216983-12.471061 27.573631-27.573631 27.573631-15.216983 0-27.573631-12.356648-27.573631-27.573631v-93.818994c0-15.216983 12.356648-27.573631 27.573631-27.573632z m-97.70905-163.382346c-5.37743 5.03419-12.699888 7.436872-19.679106 7.322458h-47.138324c-14.301676-0.457654-25.971844-12.127821-26.543911-26.429497-0.228827-7.322458 2.288268-14.416089 7.322458-19.79352 5.03419-5.37743 11.784581-8.581006 19.335866-8.809832h48.968939c15.216983 0.572067 27.001564 13.386369 26.429497 28.603352-0.114413 7.208045-3.203575 14.072849-8.695419 19.107039zM394.726257 291.210726h-47.023911c-15.10257 0-27.573631-12.356648-27.573631-27.573631s12.356648-27.573631 27.573631-27.573631H394.726257c15.216983 0 27.573631 12.471061 27.573631 27.573631 0 15.216983-12.356648 27.573631-27.573631 27.573631z"  horiz-adv-x="1024" />

    
    <glyph glyph-name="xitongrizhi1" unicode="&#59214;" d="M671.215484 580.211613h56.154839c13.873548 0 25.765161-11.230968 25.765161-25.765161v-494.823226c0-13.873548-11.230968-25.765161-25.765161-25.765161H266.24c-13.873548 0-25.765161 11.230968-25.765161 25.765161V554.446452c0 13.873548 11.230968 25.765161 25.765161 25.765161H336.929032V631.741935H266.24c-42.28129 0-76.634839-34.353548-76.634839-76.634838v-494.823226c0-42.28129 34.353548-76.634839 76.634839-76.634839H726.709677c42.28129 0 76.634839 34.353548 76.634839 76.634839V554.446452c0 42.28129-34.353548 76.634839-76.634839 76.634838h-56.154838v-50.869677h0.660645zM642.147097 554.446452v85.883871h-62.761291l-6.606451 43.60258c-4.624516 33.692903-33.692903 58.797419-67.385807 58.79742s-62.100645-25.104516-67.385806-58.79742l-6.606452-43.60258h-62.76129v-85.223226h273.507097m0-51.530323H368.64c-28.407742 0-51.530323 23.122581-51.530323 51.530323V640.330323c0 28.407742 23.122581 50.869677 51.530323 50.869677h18.498065c8.588387 58.136774 57.476129 102.4 117.594838 102.4 60.11871 0 109.667097-44.263226 117.594839-102.4H640.825806c28.407742 0 51.530323-23.122581 51.530323-50.869677v-85.223226c0.660645-28.407742-22.461935-51.530323-50.209032-51.530323zM334.947097 375.411613h170.446451c13.873548 0 25.765161 11.230968 25.765162 25.765161S519.267097 426.941935 505.393548 426.941935H334.947097c-13.873548 0-25.765161-11.230968-25.765162-25.765161s11.230968-25.765161 25.765162-25.765161M334.947097 238.658065h239.153548c13.873548 0 25.765161 11.230968 25.765161 25.765161 0 13.873548-11.230968 25.765161-25.765161 25.765161H334.947097c-13.873548 0-25.765161-11.230968-25.765162-25.765161 0-13.873548 11.230968-25.765161 25.765162-25.765161M334.947097 102.565161h307.2c13.873548 0 25.765161 11.230968 25.765161 25.765162 0 13.873548-11.230968 25.765161-25.765161 25.765161H334.947097c-13.873548 0-25.765161-11.230968-25.765162-25.765161s11.230968-25.765161 25.765162-25.765162"  horiz-adv-x="1024" />

    
    <glyph glyph-name="fangwenliang" unicode="&#58932;" d="M92.161-63.999h839.68c15.553 0 28.16 12.609 28.16 28.16s-12.608 28.16-28.16 28.16h-811.52V803.841c0 15.553-12.608 28.16-28.16 28.16s-28.16-12.608-28.16-28.16v-839.68c0-15.552 12.608-28.16 28.16-28.16z m135.803 219.165c32.945 0 59.647 30.339 59.647 67.757 0 9.026-1.567 17.634-4.387 25.51l117.759 153.753a53.084 53.084 0 0 1 17.855-3.092c17.38 0 33.018 8.449 43.919 21.922l111.182-63.334c0.36-37.068 26.92-67.002 59.63-67.002 32.944 0 59.647 30.34 59.647 67.758 0 1.254-0.035 2.496-0.094 3.732l154.882 151.144c7.387-3.723 15.554-5.807 24.154-5.807 32.946 0 59.648 30.333 59.648 67.758 0 37.419-26.702 67.757-59.648 67.757-32.933 0-59.647-30.338-59.647-67.757 0-7.711 1.15-15.112 3.24-22.017L670.74 411.41c-10.196 9.246-23.11 14.787-37.173 14.787-16.215 0-30.912-7.365-41.665-19.297l-113.574 64.602c-2.106 35.248-27.924 63.108-59.491 63.108-32.935 0-59.648-30.34-59.648-67.758 0-10.268 2.022-19.996 5.621-28.717L248.922 286.369c-6.52 2.78-13.581 4.312-20.958 4.312-32.935 0-59.648-30.338-59.648-67.758 0-37.418 26.713-67.757 59.648-67.757z"  horiz-adv-x="1024" />

    
    <glyph glyph-name="wendang" unicode="&#58922;" d="M245.78 379.98H739.6c15.09-3.06 25.96-16.43 25.96-31.95s-10.86-28.89-25.96-31.95H245.78c-15.1 3.06-25.96 16.42-25.96 31.95 0 15.52 10.87 28.89 25.96 31.95zM739.6 214.47H245.78c-15.1-3.06-25.96-16.42-25.96-31.95 0-15.52 10.86-28.89 25.96-31.95H739.6c15.09 3.06 25.96 16.43 25.96 31.95 0 15.53-10.87 28.9-25.96 31.95zM245.78 481.58h285.89c15.36 1.68 26.75 15.12 25.99 30.67 1.47 16.03-10.11 30.27-25.99 31.95H245.78c-15.88-1.68-27.46-15.92-25.99-31.95-0.76-15.55 10.64-29 25.99-30.67zM960.3 670.72l-6.97-669.68c0-70.58-56.76-127.8-126.79-127.8H192.63c-70.01 0-126.78 57.22-126.78 127.8V767.85C65.85 838.43 122.61 895.65 192.63 895.65H743.5l216.8-224.93z m-70.36-94.57H699.76c-35.01 0-63.39 28.61-63.39 63.9V831.75H192.63c-35.01 0-63.39-28.61-63.39-63.9v-766.81c0-35.29 28.38-63.9 63.39-63.9h633.91c35.01 0 63.4 28.61 63.4 63.9V576.15z m0 63.9L699.76 831.75v-160.39c0-8.31 3.27-16.27 9.1-22.14a30.963 30.963 0 0 1 21.97-9.17h159.11z"  horiz-adv-x="1024" />

    
    <glyph glyph-name="iconfontcomputer" unicode="&#58884;" d="M1065.019 884l-983.093 0c-45.251 0-81.926-36.644-81.926-81.919l0-655.35c0-45.243 36.675-81.931 81.926-81.931l409.618 0 0-122.887-204.811 0c-22.599 0-40.956-18.36-40.956-40.956l0-40.956 655.393 0 0 40.956c0 22.603-18.36 40.956-40.963 40.956l-204.811 0 0 122.887 409.619 0c45.243 0 81.926 36.687 81.926 81.931l0 655.35c0 45.275-36.681 81.919-81.926 81.919l0 0 0.005 0zM532.513 146.731c0 22.603 18.353 40.956 40.956 40.956s40.956-18.36 40.956-40.956c0-22.64-18.353-41.006-40.956-41.006s-40.956 18.366-40.956 41.006l0 0 0 0 0 0zM81.926 228.656l0 573.424 983.093 0 0-573.424-983.093 0zM81.926 228.656z"  horiz-adv-x="1147" />

    
    <glyph glyph-name="iconfontcog" unicode="&#58938;" d="M658.248192 383.967232q0 60.567552-42.8544 103.421952t-103.421952 42.8544-103.421952-42.8544-42.8544-103.421952 42.8544-103.421952 103.421952-42.8544 103.421952 42.8544 42.8544 103.421952zm292.552704 62.281728l0-126.849024q0-6.856704-4.571136-13.142016t-11.42784-7.428096l-105.70752-15.998976q-10.856448-30.855168-22.284288-51.996672 19.99872-28.5696 61.138944-78.852096 5.71392-6.856704 5.71392-14.2848t-5.142528-13.142016q-15.427584-21.141504-56.567808-61.710336t-53.710848-40.568832q-6.856704 0-14.856192 5.142528l-78.852096 61.710336q-25.141248-13.142016-51.996672-21.712896-9.142272-77.709312-16.570368-106.278912-3.999744-15.998976-20.570112-15.998976l-126.849024 0q-7.999488 0-13.999104 4.856832t-6.571008 12.284928l-15.998976 105.136128q-27.998208 9.142272-51.42528 21.141504l-80.566272-61.138944q-5.71392-5.142528-14.2848-5.142528-7.999488 0-14.2848 6.285312-71.995392 65.138688-94.27968 95.993856-3.999744 5.71392-3.999744 13.142016 0 6.856704 4.571136 13.142016 8.57088 11.999232 29.140992 37.997568t30.855168 40.283136q-15.427584 28.5696-23.427072 56.567808l-104.564736 15.427584q-7.428096 1.142784-11.999232 7.1424t-4.571136 13.427712l0 126.849024q0 6.856704 4.571136 13.142016t10.856448 7.428096l106.278912 15.998976q7.999488 26.284032 22.284288 52.568064-22.85568 32.569344-61.138944 78.852096-5.71392 6.856704-5.71392 13.713408 0 5.71392 5.142528 13.142016 14.856192 20.570112 56.282112 61.42464t53.996544 40.854528q7.428096 0 14.856192-5.71392l78.852096-61.138944q25.141248 13.142016 51.996672 21.712896 9.142272 77.709312 16.570368 106.278912 3.999744 15.998976 20.570112 15.998976l126.849024 0q7.999488 0 13.999104-4.856832t6.571008-12.284928l15.998976-105.136128q27.998208-9.142272 51.42528-21.141504l81.137664 61.138944q5.142528 5.142528 13.713408 5.142528 7.428096 0 14.2848-5.71392 73.709568-67.995648 94.27968-97.13664 3.999744-4.571136 3.999744-12.570624 0-6.856704-4.571136-13.142016-8.57088-11.999232-29.140992-37.997568t-30.855168-40.283136q14.856192-28.5696 23.427072-55.996416l104.564736-15.998976q7.428096-1.142784 11.999232-7.1424t4.571136-13.427712z"  horiz-adv-x="1024" />

    
    <glyph glyph-name="iconfontwo" unicode="&#58885;" d="M499.2 620.8m-275.2 0a4.3 4.3 0 1 0 550.4 0 4.3 4.3 0 1 0-550.4 0ZM710.4 313.6c-44.8-64-121.6-108.8-211.2-108.8-83.2 0-160 44.8-211.2 108.8-128-70.4-217.6-204.8-217.6-358.4 0-25.6 0-57.6 6.4-83.2l838.4 0c6.4 25.6 6.4 57.6 6.4 83.2C928 108.8 838.4 243.2 710.4 313.6z"  horiz-adv-x="1024" />

    
    <glyph glyph-name="iconfontren" unicode="&#58917;" d="M970.666667 96.711111c-15.256566 44.347475-65.939394 50.812121-108.218182 68.654545-46.545455 19.652525-98.00404 42.408081-144.420202 61.414141-13.187879 3.620202-26.505051 7.240404-39.692929 10.860606-15.773737 10.860606-31.288889 46.933333-39.692929 65.034343-8.40404 1.163636-16.808081 2.456566-25.212121 3.620202 1.292929 27.79798 18.488889 29.349495 25.212121 50.553535 5.947475 18.747475 0.646465 43.054545 10.084848 60.379798 6.593939 12.024242 21.333333 12.153535 28.70303 22.49697 6.723232 9.309091 11.119192 25.729293 13.187879 37.236364 3.878788 20.945455 7.111111 49.648485-2.844444 70.464646-5.688889 11.894949-9.309091 13.058586-10.989899 27.668687-1.939394 17.583838 5.171717 74.989899 5.430303 87.40202 0.775758 32.193939 0 34.779798-7.757576 66.068687 0 0-9.438384 28.315152-24.307071 36.977778l-29.478788 5.171717L602.569697 787.393939c-73.567677 45.252525-152.307071 13.575758-194.585859-3.620202-60.89697-19.781818-99.29697-79.385859-72.40404-206.739394 4.525253-21.721212-11.894949-31.418182-10.860606-43.313131 2.327273-25.987879 2.844444-88.436364 27.410101-103.822222 2.327273-1.422222 19.652525-5.818182 19.523232-4.654545 2.456566-25.212121 4.783838-50.553535 7.240404-75.765657 6.076768-16.808081 20.816162-18.618182 25.082828-42.408081l-18.747475-4.525253c-8.40404-17.971717-23.919192-54.173737-39.692929-65.034343-13.187879-3.620202-26.505051-7.240404-39.692929-10.860606-46.416162-19.006061-97.874747-41.761616-144.290909-61.414141-42.278788-17.842424-92.961616-24.177778-108.218182-68.654545 0-30.125253-2.844444-101.365657-2.068687-140.8L455.692929-44.218182l29.737374 202.989899-24.694949 52.105051 57.018182 27.410101 47.967677-26.763636-26.505051-53.656566 46.80404-202.084848 386.715152 0C973.511111-4.654545 970.666667 66.585859 970.666667 96.711111"  horiz-adv-x="1024" />

    
    <glyph glyph-name="wangzhan" unicode="&#58920;" d="M512 864C246.912 864 32 649.152 32 384s214.912-480 480-480c265.152 0 480 214.848 480 480S777.152 864 512 864zM320.256 752.96c20.864 10.88 42.688 20.16 65.408 27.392-23.616-34.624-43.968-78.656-59.904-129.6-23.808 15.232-37.76 33.472-37.76 53.248 0 17.984 12.224 34.56 32.256 48.96zM227.136 686.656c7.424-37.568 36.864-71.296 82.752-96.512-11.84-53.376-19.2-112.064-21.12-174.144H97.6a414.464 414.464 0 0 0 129.536 270.656z m0-605.312A414.464 414.464 0 0 0 97.6 352h191.104c1.92-62.08 9.344-120.768 21.184-174.144-45.888-25.088-75.328-58.944-82.752-96.512z m93.12-66.304C300.224 29.44 288 46.08 288 64c0 19.776 13.952 38.08 37.76 53.312 15.936-51.008 36.288-94.976 59.904-129.664a411.392 411.392 0 0 0-65.408 27.392z m159.744-38.656c-40.192 21.184-74.816 81.856-97.92 165.568a425.536 425.536 0 0 0 97.92 16.704v-182.272z m0 245.824a454.592 454.592 0 0 1-111.68-20.288A966.4 966.4 0 0 0 352.64 352H480v-129.792z m0 193.792H352.64a966.4 966.4 0 0 0 15.68 150.08 460.608 460.608 0 0 1 111.68-20.352V416z m0 193.344a432.512 432.512 0 0 0-97.92 16.704c23.104 83.712 57.728 144.32 97.92 165.568v-182.272z m316.864 77.312A414.08 414.08 0 0 0 926.336 416h-191.104c-1.92 62.08-9.344 120.768-21.184 174.144 45.952 25.152 75.392 58.944 82.816 96.512z m-93.12 66.304c20.032-14.4 32.256-30.976 32.256-48.96 0-19.776-13.952-38.016-37.76-53.248-15.936 50.944-36.288 94.976-59.968 129.6a409.6 409.6 0 0 0 65.472-27.392zM544 791.616c40.256-21.248 74.88-81.856 97.92-165.568a432.512 432.512 0 0 0-97.92-16.704V791.616z m0-245.888a460.096 460.096 0 0 1 111.68 20.288c8.64-45.888 14.144-96.448 15.68-150.016H544V545.728z m0-193.728h127.36c-1.536-53.568-7.04-104.128-15.68-150.144a454.016 454.016 0 0 1-111.68 20.288V352z m0-375.616v182.272a425.536 425.536 0 0 0 97.92-16.704c-23.04-83.712-57.664-144.384-97.92-165.568z m159.744 38.656c-20.864-10.88-42.688-20.16-65.408-27.456 23.616 34.688 44.032 78.656 59.968 129.664 23.808-15.232 37.76-33.536 37.76-53.312-0.064-17.856-12.288-34.496-32.32-48.896z m93.12 66.304c-7.424 37.568-36.928 71.36-82.816 96.512a936.96 936.96 0 0 1 21.184 174.144h191.104a414.08 414.08 0 0 0-129.472-270.656z"  horiz-adv-x="1024" />

    
    <glyph glyph-name="yulan" unicode="&#59042;" d="M642.844444 213.333333l39.822223 39.822223 227.555555-227.555556-39.822222-39.822222-227.555556 227.555555zM853.333333 782.222222h56.888889v-568.888889h-56.888889V782.222222zM170.666667 782.222222h682.666666v-56.888889H170.666667V782.222222z m0-739.555555h512v-56.888889H113.777778V782.222222h56.888889v-739.555555zM512 156.444444c-125.155556 0-227.555556 102.4-227.555556 227.555556s102.4 227.555556 227.555556 227.555556 227.555556-102.4 227.555556-227.555556-102.4-227.555556-227.555556-227.555556z m0 56.888889c96.711111 0 170.666667 73.955556 170.666667 170.666667s-73.955556 170.666667-170.666667 170.666667-170.666667-73.955556-170.666667-170.666667 73.955556-170.666667 170.666667-170.666667z"  horiz-adv-x="1024" />

    
    <glyph glyph-name="wangzhanxinxi" unicode="&#58924;" d="M960.006666 895.936007H107.743443C55.418227 895.936007 11.860098 854.7243 11.860098 802.292428v-623.572378c0-25.469347 10.409582-49.829476 28.285054-67.55563a96.288637 96.288637 0 0 1 67.598291-27.8371h260.730174c-6.378002-90.742548-42.42758-144.688928-44.176731-147.312655a40.187814 40.187814 0 0 1-3.135674-41.936965c6.889949-13.481262 20.904489-22.099031 36.177565-22.099031h353.221873c15.145089 0 29.287616 8.980398 36.177565 22.46166 6.868618 13.481262 5.7594 29.223623-3.26366 41.446349-1.749151 2.623727-37.926716 56.80475-44.304719 147.568629h260.83683c52.965149 0 94.518154 43.451474 94.518154 95.499385V802.292428c0 52.559858-41.553005 93.643579-94.518154 93.643579zM107.743443 815.517717h852.263223c8.148485 0 13.907885-5.354109 13.907885-13.225289v-431.443058H92.470368V802.292428c0 8.233809 7.401896 13.225289 15.273075 13.225289z m537.970628-863.270076H421.908051c12.393376 32.337965 24.296136 76.152067 27.431809 130.951692h168.963733c3.135673-54.799625 15.017102-98.613728 27.410478-130.951692z m314.292595 211.476638H107.743443c-8.127153 0-15.273076 6.996605-15.273075 14.995771v111.732361h881.444183v-111.732361c0-7.636538-5.396771-14.995771-13.907885-14.995771z"  horiz-adv-x="1066" />

    
    <glyph glyph-name="wangzhandaohang" unicode="&#58918;" d="M140.288 384a61.44 61.44 0 1 0-61.44 61.44 61.44 61.44 0 0 0 61.44-61.44z m837.632 28.16H245.76a28.16 28.16 0 0 1 0-56.32h732.16a28.16 28.16 0 0 1 0 56.32zM79.1552 130.048a61.44 61.44 0 1 1 61.44-61.44 61.44 61.44 0 0 1-61.44 61.44zM977.92 97.28H245.76a28.16 28.16 0 0 1 0-56.32h732.16a28.16 28.16 0 0 1 0 56.32zM79.1552 760.4224a61.44 61.44 0 1 1 61.44-61.44 61.44 61.44 0 0 1-61.44 61.44zM245.76 670.72h732.16a28.16 28.16 0 0 1 0 56.32H245.76a28.16 28.16 0 0 1 0-56.32z"  horiz-adv-x="1024" />

    
    <glyph glyph-name="wangzhankaifa" unicode="&#59080;" d="M723.234291 173.464004m-299.269362 0a299.269362 299.269362 0 1 1 598.538724 0 299.269362 299.269362 0 1 1-598.538724 0ZM1022.004871 161.094204V889.316318c0 2.793181-2.194642 4.987823-4.987823 4.987822H5.686118c-2.793181 0-4.987823-2.194642-4.987823-4.987822v-728.222114c0-2.793181 2.194642-4.987823 4.987823-4.987823h469.753142c2.793181 0 4.987823-2.194642 4.987822-4.987823v-213.279298c0-2.793181-2.194642-4.987823-4.987822-4.987823h-238.417925c-2.793181 0-4.987823-2.194642-4.987823-4.987823v-50.875791c0-2.793181 2.194642-4.987823 4.987823-4.987823h548.660496c2.793181 0 4.987823 2.194642 4.987823 4.987823v50.875791c0 2.793181-2.194642 4.987823-4.987823 4.987823h-238.417925c-2.793181 0-4.987823 2.194642-4.987822 4.987823V151.118558c0 2.793181 2.194642 4.987823 4.987822 4.987823h469.753142c2.693424 0 4.987823 2.294398 4.987823 4.987823zM65.53999 834.450268h891.523429c2.793181 0 4.987823-2.194642 4.987823-4.987823v-608.514369c0-2.793181-2.194642-4.987823-4.987823-4.987823H65.53999c-2.793181 0-4.987823 2.194642-4.987822 4.987823v608.514369c0 2.793181 2.294398 4.987823 4.987822 4.987823zM453.592596 290.278811c-2.892937 0-5.785874 0.498782-8.479298 1.496347-6.1849 2.294398-11.172723 6.783439-13.965904 12.868583-2.793181 5.985387-3.09245 12.768826-0.798052 18.953726l142.551973 392.142621c3.591232 9.776132 12.868583 16.360058 23.34301 16.360058 2.892937 0 5.785874-0.498782 8.479299-1.496347 12.868583-4.688553 19.452509-18.953726 14.863712-31.822308L476.83585 306.63887c-3.491476-9.776132-12.868583-16.360058-23.243254-16.360059z m213.877838 89.082514c-6.583926 0-12.968339 2.693424-17.557136 7.282221-4.688553 4.688553-7.282221 10.873453-7.282222 17.557136 0 6.48417 2.693424 12.868583 7.282222 17.557136l89.381782 89.381783-89.381782 89.381782c-9.676376 9.676376-9.676376 25.338139 0 35.014516 4.688553 4.688553 10.873453 7.282221 17.557136 7.282221 6.583926 0 12.868583-2.593668 17.557135-7.282221l106.938919-106.938919c4.688553-4.688553 7.282221-10.873453 7.282221-17.557136 0-6.583926-2.593668-12.868583-7.282221-17.557136L684.927813 386.643546c-4.588797-4.688553-10.873453-7.282221-17.457379-7.282221z m-285.203702 0c-6.583926 0-12.868583 2.593668-17.557136 7.282221L257.770677 493.682221c-4.688553 4.688553-7.282221 10.873453-7.282221 17.557136 0 6.583926 2.593668 12.868583 7.282221 17.557136L364.709596 635.635655c4.688553 4.688553 10.873453 7.282221 17.557136 7.282221s12.868583-2.593668 17.557136-7.282221c9.676376-9.676376 9.676376-25.338139 0-35.014515l-89.381783-89.381783 89.381783-89.381783c4.688553-4.688553 7.282221-10.873453 7.282221-17.557136 0-6.583926-2.593668-12.868583-7.282221-17.557136-4.588797-4.688553-11.072966-7.381978-17.557136-7.381977z"  horiz-adv-x="1025" />

    
    <glyph glyph-name="V" unicode="&#59103;" d="M919.601951 746.845659H320.28722v-151.452098h79.822048v79.722146h479.431805v-582.131512H408.101463V156.721951h-79.921951v-135.56761h631.383415V746.845659zM400.109268 236.544l119.882927 151.452098-119.882927 127.575414H288.318439l95.806439-103.598829h-319.687805v-79.822049h319.687805l-95.806439-95.606634z"  horiz-adv-x="1024" />

    
    <glyph glyph-name="shuben" unicode="&#59055;" d="M1286.615967 825.036379A70.795062 70.795062 0 0 1 1215.820905 896H70.963621A70.963621 70.963621 0 0 1 0 825.036379v-712.164609a70.963621 70.963621 0 0 1 70.963621-70.795062h432.355556a142.095802 142.095802 0 0 0-95.910453-113.440659h-165.862716a28.318025 28.318025 0 1 1 0-56.636049H1045.069959a28.318025 28.318025 0 0 1 0 56.636049h-165.862716a141.927243 141.927243 0 0 0-95.741893 113.440659h432.355555a70.795062 70.795062 0 0 1 70.795062 70.795062z m-488.823045-896.40033H488.823045a185.415638 185.415638 0 0 1 57.647408 113.440659h193.843621a183.730041 183.730041 0 0 1 57.647407-113.440659zM622.153745 158.382881a108.046749 108.046749 0 0 1-70.626502 26.800987h-404.54321c-2.528395 0-5.22535 3.371193-5.22535 7.922305V744.296296c0 4.382551 2.696955 7.753745 5.22535 7.753745h404.54321a75.177613 75.177613 0 0 0 70.626502-78.211687v-515.455473z m42.477037 514.949794a75.177613 75.177613 0 0 0 70.626502 78.885926h404.54321c2.528395 0 5.393909-3.371193 5.393909-7.753745V193.106173c0-4.551111-2.865514-7.922305-5.393909-7.922305h-404.54321a107.70963 107.70963 0 0 1-70.626502-26.800987V673.332675z m551.190123-588.94749H667.327737a72.649218 72.649218 0 0 0 67.423868 58.321646h404.54321a49.219424 49.219424 0 0 1 47.870946 50.567902V744.296296a49.219424 49.219424 0 0 1-47.870946 50.567902h-404.54321a110.743704 110.743704 0 0 1-91.865021-50.567902 110.743704 110.743704 0 0 1-91.86502 50.567902h-404.54321a49.219424 49.219424 0 0 1-46.691029-50.567902v-551.190123a49.219424 49.219424 0 0 1 47.870947-50.567901h404.543209a72.480658 72.480658 0 0 0 67.423869-58.321646H70.963621a28.486584 28.486584 0 0 0-28.318024 28.486584V825.036379a28.486584 28.486584 0 0 0 28.318024 28.486584h1144.857284a28.486584 28.486584 0 0 0 28.486585-28.486584v-712.164609a28.486584 28.486584 0 0 0-28.486585-28.486585zM546.976132 477.972016H217.441975a21.407078 21.407078 0 0 0-21.238518 21.238519V669.624362a21.238519 21.238519 0 0 0 21.238518 21.238519h329.534157a21.238519 21.238519 0 0 0 21.238518-21.238519v-170.413827a21.407078 21.407078 0 0 0-21.238518-21.238519z m-308.295638 42.477037h286.55144v127.936791h-286.55144zM546.976132 378.69037H217.441975a21.407078 21.407078 0 0 0 0 42.645597h329.534157a21.407078 21.407078 0 0 0 0-42.645597zM1069.342551 648.385844H739.808395a21.238519 21.238519 0 1 0 0 42.477037h329.534156a21.238519 21.238519 0 1 0 0-42.477037zM1069.342551 279.577284H739.808395a21.238519 21.238519 0 0 0 0 42.477037h329.534156a21.238519 21.238519 0 0 0 0-42.477037zM546.976132 279.577284H217.441975a21.238519 21.238519 0 0 0 0 42.477037h329.534157a21.238519 21.238519 0 0 0 0-42.477037zM870.44214 378.69037h-130.633745a21.407078 21.407078 0 0 0-21.238518 21.407079V570.511276a21.407078 21.407078 0 0 0 21.238518 21.238518h130.633745a21.238519 21.238519 0 0 0 21.238518-21.238518v-170.413827a21.238519 21.238519 0 0 0-21.238518-21.407079z m-109.395226 42.645597h88.156707v127.768231h-88.156707zM1069.342551 549.104198H960.790123a21.407078 21.407078 0 1 0 0 42.645596h109.058107a21.407078 21.407078 0 0 0 0-42.645596zM1031.079506 449.991111H960.790123a21.238519 21.238519 0 1 0 0 42.477037h70.795062a21.238519 21.238519 0 0 0 0-42.477037z"  horiz-adv-x="1286" />

    
    <glyph glyph-name="tuichu_huaban1" unicode="&#59014;" d="M738.133333 621.653333l-60.16-60.16L812.8 426.666667H368.213333v-85.333334h443.733334l-134.826667-134.826666 60.16-60.16 208.213333 207.786666v60.586667L738.133333 621.653333zM518.826667 106.666667H163.84v554.666666h355.413333v-128h85.333334v128a85.333333 85.333333 0 0 1-85.333334 85.333334H163.84a85.333333 85.333333 0 0 1-85.333333-85.333334v-554.666666a85.333333 85.333333 0 0 1 85.333333-85.333334h355.413333a85.333333 85.333333 0 0 1 85.333334 85.333334v128h-85.333334z m0 0z"  horiz-adv-x="1024" />

    
    <glyph glyph-name="yidong" unicode="&#59175;" d="M480.71231 389.452352L487.279211 701.05239l-98.10753-98.10753c-12.496698-12.496698-32.758136-12.496698-45.254834 0-12.496698 12.496698-12.496698 32.758136 0 45.254834l145.663996 145.663997c12.496698 12.496698 32.758136 12.496698 45.254834 0l145.663997-145.663997c12.496698-12.496698 12.496698-32.758136 0-45.254834-12.496698-12.496698-32.758136-12.496698-45.254834 0L544.208378 693.981322 544.206257 388.746659l305.23537 0L758.342939 479.845347c-12.496698 12.496698-12.496698 32.758136 0 45.254834 12.496698 12.496698 32.758136 12.496698 45.254834 0l145.663997-145.663997c12.496698-12.496698 12.496698-32.758136 0-45.254834l-145.663997-145.663996c-12.496698-12.496698-32.758136-12.496698-45.254834 0-12.496698 12.496698-12.496698 32.758136 0 45.254834L849.316469 324.745718 544.207671 324.746425l0-305.410733L635.243426 110.371448c12.496698 12.496698 32.758136 12.496698 45.254834 0 12.496698-12.496698 12.496698-32.758136 0-45.254834l-145.663997-145.663997c-12.496698-12.496698-32.758136-12.496698-45.254834 0l-145.663997 145.663997c-12.496698 12.496698-12.496698 32.758136 0 45.254834 12.496698 12.496698 32.758136 12.496698 45.254834 0L480.207436 19.334278 480.207436 325.453531 174.391531 325.452824l90.97353-90.97353c12.496698-12.496698 12.496698-32.758136 0-45.254834-12.496698-12.496698-32.758136-12.496698-45.254834 0l-145.663997 145.663997c-12.496698 12.496698-12.496698 32.758136 0 45.254834l145.663997 145.663997c12.496698 12.496698 32.758136 12.496698 45.254834 0 12.496698-12.496698 12.496698-32.758136 0-45.254834L174.265666 389.453059l306.445937 0z"  horiz-adv-x="1024" />

    
    <glyph glyph-name="fangda" unicode="&#58886;" d="M0 782.189714V896h455.094857v-113.810286H194.194286L482.742857 493.714286 402.285714 413.257143 113.810286 701.805714v-260.900571H0V782.189714zM1024-14.189714V-128H568.905143v113.810286h260.900571L541.257143 274.285714l80.457143 80.457143 288.475428-288.548571V327.094857H1024v-341.284571z"  horiz-adv-x="1024" />

    
    <glyph glyph-name="Group" unicode="&#58907;" d="M514.652245 401.31587L85.929879 877.424414A47.896805 47.896805 0 1 1 14.748486 813.391797l455.989843-506.541908a47.79468 47.79468 0 0 1 43.913916-26.246224 47.692555 47.692555 0 0 1 43.913915 26.348349L1014.453878 813.391797a47.896805 47.896805 0 0 1-71.079267 64.032617L514.652245 401.31587zM514.652245-7.18567L85.929879 468.922874a47.896805 47.896805 0 1 1-71.181393-64.032616l455.989843-506.541909a47.79468 47.79468 0 0 1 43.913916-26.246224 47.692555 47.692555 0 0 1 43.913915 26.34835l455.887718 506.439783a47.896805 47.896805 0 1 1-71.079267 64.032616L514.652245-7.18567z"  horiz-adv-x="1032" />

    
    <glyph glyph-name="file" unicode="&#58897;" d="M477.908446 571.628886H307.325337a17.045777 17.045777 0 1 0 0 34.091555h170.583109a17.045777 17.045777 0 0 0 0-34.091555zM375.508446 503.445777h-68.183109a17.045777 17.045777 0 0 0 0 34.091555h68.183109a17.045777 17.045777 0 0 0 0-34.091555zM716.674663 366.95422299999996H307.325337a17.045777 17.045777 0 0 0 0 34.091554h409.349326a17.045777 17.045777 0 0 0 0-34.091554zM716.674663 298.771114H307.325337a17.045777 17.045777 0 0 0 0 34.091554h409.349326a17.045777 17.045777 0 0 0 0-34.091554zM716.674663 230.462668H307.325337a17.171114 17.171114 0 0 0 0 34.216891h409.349326a17.171114 17.171114 0 0 0 0-34.216891zM443.816891 162.27955899999995H307.325337a17.045777 17.045777 0 1 0 0 34.091555h136.491554a17.045777 17.045777 0 1 0 0-34.091555zM708.402448 690.949327m0 16.669767l0 0q0 16.669767 16.669767 16.669768l171.335129 0q16.669767 0 16.669767-16.669768l0 0q0-16.669767-16.669767-16.669767l-171.335129 0q-16.669767 0-16.669767 16.669767ZM741.616646 691.074663m-16.669767 0l0 0q-16.669767 0-16.669768 16.669768l0 86.106242q0 16.669767 16.669768 16.669768l0 0q16.669767 0 16.669767-16.669768l0-86.106242q0-16.669767-16.669767-16.669768ZM920.002394 708.441452m-11.787306-11.787305l0 0q-11.787306-11.787306-23.574611 0l-170.960244 170.960244q-11.787306 11.787306 0 23.574611l0 0q11.787306 11.787306 23.574611 0l170.960244-170.960244q11.787306-11.787306 0-23.574611ZM434.667319-111.33023300000002m-16.669767 0a16.669767 16.669767 0 1 1 33.339535 0 16.669767 16.669767 0 1 1-33.339535 0ZM366.985557-94.15911900000003H177.977968a33.840881 33.840881 0 0 0-33.715544 33.840882v889.88984a33.840881 33.840881 0 0 0 33.715544 33.088862h548.974296V896H177.977968A67.180416 67.180416 0 0 1 110.922889 828.94492v-889.88984a67.180416 67.180416 0 0 1 67.055079-67.05508h189.007589a16.669767 16.669767 0 1 1 0 33.339535zM913.077111 624.3955940000001a16.669767 16.669767 0 0 1-33.339535 0v-685.215178A33.840881 33.840881 0 0 0 846.022032-94.15911900000003H501.221053a16.669767 16.669767 0 1 1 0-33.339535h344.800979A67.180416 67.180416 0 0 1 913.077111-60.81958399999996V624.3955940000001z"  horiz-adv-x="1024" />

    
    <glyph glyph-name="51wenjianguanli" unicode="&#58913;" d="M905.846 718.769H433.231c0 65.229-52.921 118.154-118.154 118.154H118.154C52.925 836.923 0 783.998 0 718.769V49.23c0-65.233 52.925-118.154 118.154-118.154h787.692c65.233 0 118.154 52.921 118.154 118.154V600.615c0 65.229-52.921 118.154-118.154 118.154z m39.385-669.538c0-21.732-17.652-39.385-39.385-39.385H118.154c-21.732 0-39.385 17.652-39.385 39.385V600.615c0 21.732 17.652 39.385 39.385 39.385h787.692c21.732 0 39.385-17.652 39.385-39.385v-551.384z"  horiz-adv-x="1024" />

    
    <glyph glyph-name="wenjian" unicode="&#58903;" d="M950.914826-128H73.085174V896h565.299684l310.107256-310.107256zM259.634069 536.630915H638.384858V411.457413H259.634069z m0-251.962145h503.924291v-125.981073H259.634069z"  horiz-adv-x="1024" />

    
    <glyph glyph-name="liuyanban" unicode="&#58896;" d="M896.34715904-86.06783807H226.11527554V827.87597733h670.22447667v-913.9438154z m-636.37662566 33.85525785h602.52877465V794.02072086H259.97053338v-846.23330108zM664.47086538 699.25414542c0-7.48059746-6.05854267-13.53914013-13.53914012-13.53914151H359.8253954a13.54654697 13.54654697 0 0 0 0 27.07828164h291.10632986c7.48059746 0 13.53914013-6.07335633 13.53914012-13.53914013zM776.1761793 597.7031855600001c0-7.48059746-8.18421731-13.53914013-18.30154-13.53914012H364.58038982c-10.102509 0-18.29413317 6.05854267-18.29413455 13.53914012 0 7.48059746 8.19162415 13.53914013 18.29413455 13.53914013h393.3016563c10.10991583 0 18.29413317-6.0659495 18.29413318-13.53914013zM776.1761793 485.99787164c0-7.48059746-8.18421731-13.53914013-18.30154-13.53914012H364.58038982c-10.102509 0-18.29413317 6.05854267-18.29413455 13.53914012 0 7.48059746 8.19162415 13.53914013 18.29413455 13.53914013h393.3016563c10.10991583 0 18.29413317-6.0659495 18.29413318-13.53914013zM776.1761793 374.29255772c0-7.48059746-8.18421731-13.53914013-18.30154-13.53914012H364.58038982c-10.102509 0-18.29413317 6.05854267-18.29413455 13.53914012 0 7.48059746 8.19162415 13.53914013 18.29413455 13.53914014h393.3016563c10.10991583 0 18.29413317-6.0659495 18.29413318-13.53914014zM776.1761793 262.57983836000005c0-7.47319062-8.18421731-13.53914013-18.30154-13.53914151H364.58038982c-10.102509 0-18.29413317 6.0659495-18.29413455 13.53914151 0 7.48059746 8.19162415 13.53914013 18.29413455 13.53914014h393.3016563c10.10991583 0.00740683 18.29413317-6.05854267 18.29413318-13.53914014zM776.1761793 150.88192990000005c0-7.48059746-8.18421731-13.53914013-18.30154-13.53914013H364.58038982c-10.102509 0-18.29413317 6.05854267-18.29413455 13.53914013 0 7.47319062 8.19162415 13.53914013 18.29413455 13.53914012h393.3016563c10.10991583 0.00740683 18.29413317-6.0659495 18.29413318-13.53914012zM776.1761793 39.17661597999995c0-7.48059746-8.18421731-13.53914013-18.30154-13.53914013H364.58038982c-10.102509 0-18.29413317 6.05854267-18.29413455 13.53914013 0 7.48059746 8.19162415 13.53914013 18.29413455 13.53914012h393.3016563c10.10991583 0.00740683 18.29413317-6.05854267 18.29413318-13.53914012zM745.71311436 699.25414542a16.91651936 16.91651936 0 1 0-33.84785102 0 16.93133165 16.93133165 0 0 0 33.84785102 0zM111.30662543 490.33069331c0-19.21994966-13.13178105-34.7958866-29.32986687-34.79588661-16.20549127 0-29.33727232 15.5833424-29.33727232 34.79588661V617.0712662999999c0 19.21994966 13.13178105 34.7958866 29.33727232 34.79588798 16.20549127 0 29.32986688-15.5833424 29.32986687-34.79588798v-126.74057299zM89.02777644 15.697910200000024a24.33045674 14.82047066 90 1 1 29.64094131 0 24.33045674 14.82047066 90 1 1-29.64094131 0ZM104.51483557 6.0397930399999495a30.89264452 14.820470660000002 90 1 1 29.64093993 0 30.89264452 14.820470660000002 90 1 1-29.64093993 0ZM196.63727895 696.61741881c0 33.0035055-26.19690337 59.84477825-58.38569069 59.84477826-32.19619417 0-58.3856907-26.84127135-58.38569069-59.84477826v-668.66910447c0-3.03667748 0.29626078-5.99188397 0.71843353-8.90265221h-0.56289701l0.76287313-1.34798788a60.15585268 60.15585268 0 0 1 20.54571979-36.0698103l36.92156125-64.81456106 35.70688944 62.68147958c2.0071695 1.21467183 3.84399021 3.26628093 5.39936241 6.00669763a60.14103903 60.14103903 0 0 1 16.36102919 32.20360097l0.77027858 1.34798789h-0.57030245c0.42957821 2.91817372 0.71843353 5.86597338 0.71843352 8.90265222v668.66169763zM113.71374721 579.09057112h49.07568074v-455.27951465H113.71374721v455.27951465z m24.53784105 143.52377495c13.5317333 0 24.53783968-11.65788121 24.53783969-25.99692726v-90.44856742H113.71374721V696.61741881c0 14.33904603 11.01351322 25.99692724 24.53784105 25.99692726z m-24.53784105-694.66603173v68.78446188h49.07568074v-60.40026842a23.45648668 23.45648668 0 0 1-3.56994855-5.63636993c-2.2441798 2.86632729-4.880905 4.53279779-7.70279269 4.53279642-3.99952674 0-7.6213217-3.31071914-10.28767284-8.68045423-1.85903981 1.74794149-3.91805574 2.75523036-6.09557545 2.75522897-4.37725989 0-8.30272246-3.97730763-11.01351321-10.26545237h-8.89524541a27.20419222 27.20419222 0 0 0-1.51093259 8.91005768z"  horiz-adv-x="1024" />

    
    <glyph glyph-name="xinxiang" unicode="&#59198;" d="M385.28 155.52H85.76c-20.48 0-37.12 16.64-37.12 37.12V449.92c0 20.48 16.64 37.12 37.12 37.12h300.16c4.48 0 7.68-3.2 7.68-7.68s-3.2-7.68-7.68-7.68H85.76c-12.16 0-21.76-9.6-21.76-21.76V192c0-12.16 9.6-21.76 21.76-21.76h300.16c4.48 0 7.68-3.2 7.68-7.68-0.64-3.84-3.84-7.04-8.32-7.04zM284.16 291.2c-1.28 0-3.2 0.64-4.48 1.28l-224 163.2c-3.2 2.56-3.84 7.04-1.92 10.88 2.56 3.2 7.04 3.84 10.88 1.92l219.52-160 96.64 70.4c3.2 2.56 8.32 1.92 10.88-1.92 2.56-3.2 1.92-8.32-1.92-10.88L288.64 292.48c-1.28-0.64-2.56-1.28-4.48-1.28zM87.04 184.96c-2.56 0-4.48 1.28-6.4 3.2-2.56 3.2-1.92 8.32 1.28 10.88l1.28 0.64c3.2 2.56 8.32 1.92 10.88-1.28 2.56-3.2 1.92-8.32-1.28-10.88l-1.28-0.64c-1.28-1.28-2.56-1.92-4.48-1.92zM103.04 197.12c-2.56 0-4.48 1.28-6.4 3.2-2.56 3.2-1.92 8.32 1.28 10.88l2.56 1.92c3.2 2.56 8.32 1.92 10.88-1.28 2.56-3.2 1.92-8.32-1.28-10.88l-2.56-1.92c-1.28-1.28-2.56-1.92-4.48-1.92z m17.28 12.8c-2.56 0-4.48 1.28-6.4 3.2-2.56 3.2-1.92 8.32 1.28 10.88l2.56 1.92c3.2 2.56 8.32 1.92 10.88-1.28 2.56-3.2 1.92-8.32-1.28-10.88l-2.56-1.92c-1.28-1.28-2.56-1.92-4.48-1.92z m17.28 12.8c-2.56 0-4.48 1.28-6.4 3.2-2.56 3.2-1.92 8.32 1.28 10.88l2.56 1.92c3.2 2.56 8.32 1.92 10.88-1.28 2.56-3.2 1.92-8.32-1.28-10.88l-2.56-1.92c-1.28-1.28-2.56-1.92-4.48-1.92z m17.28 12.8c-2.56 0-4.48 1.28-6.4 3.2-2.56 3.2-1.92 8.32 1.28 10.88l2.56 1.92c3.2 2.56 8.32 1.92 10.88-1.28 2.56-3.2 1.92-8.32-1.28-10.88l-2.56-1.92c-1.28-1.28-2.56-1.92-4.48-1.92z m17.28 12.8c-2.56 0-4.48 1.28-6.4 3.2-2.56 3.2-1.92 8.32 1.28 10.88l2.56 1.92c3.2 2.56 8.32 1.92 10.88-1.28 2.56-3.2 1.92-8.32-1.28-10.88l-2.56-1.92c-1.28-1.28-3.2-1.92-4.48-1.92z m17.28 12.8c-2.56 0-4.48 1.28-6.4 3.2-2.56 3.2-1.92 8.32 1.28 10.88l2.56 1.92c3.2 2.56 8.32 1.92 10.88-1.28 2.56-3.2 1.92-8.32-1.28-10.88l-2.56-2.56c-1.28-0.64-3.2-1.28-4.48-1.28z m17.28 12.8c-2.56 0-4.48 1.28-6.4 3.2-2.56 3.2-1.92 8.32 1.28 10.88l2.56 1.92c3.2 2.56 8.32 1.92 10.88-1.28 2.56-3.2 1.92-8.32-1.28-10.88l-2.56-2.56c-1.28-0.64-3.2-1.28-4.48-1.28zM224 286.72c-2.56 0-4.48 1.28-6.4 3.2-2.56 3.2-1.92 8.32 1.28 10.88l1.28 0.64c3.2 2.56 8.32 1.92 10.88-1.28 2.56-3.2 1.92-8.32-1.28-10.88l-1.28-1.28c-1.28-0.64-3.2-1.28-4.48-1.28zM336.64 290.56c-1.28 0-3.2 0.64-4.48 1.28l-1.28 0.64c-3.2 2.56-3.84 7.04-1.28 10.88 2.56 3.2 7.04 3.84 10.88 1.28l1.28-0.64c3.2-2.56 3.84-7.04 1.28-10.88-1.92-1.92-4.48-2.56-6.4-2.56zM369.92 265.6c-1.28 0-3.2 0.64-4.48 1.28l-2.56 1.92c-3.2 2.56-3.84 7.04-1.28 10.88 2.56 3.2 7.04 3.84 10.88 1.28l2.56-1.92c3.2-2.56 3.84-7.04 1.28-10.88-1.92-1.92-4.48-2.56-6.4-2.56z m-16.64 12.16c-1.28 0-3.2 0.64-4.48 1.28l-2.56 1.92c-3.2 2.56-3.84 7.04-1.28 10.88 2.56 3.2 7.04 3.84 10.88 1.28l2.56-1.92c3.2-2.56 3.84-7.04 1.28-10.88-1.92-1.28-4.48-2.56-6.4-2.56zM385.28 254.08c-1.28 0-3.2 0.64-4.48 1.28l-1.28 0.64c-3.2 2.56-3.84 7.04-1.28 10.88 2.56 3.2 7.04 3.84 10.88 1.28l1.28-0.64c3.2-2.56 3.84-7.04 1.28-10.88-1.92-1.92-3.84-2.56-6.4-2.56zM355.84 583.04c-23.04 22.4-53.12 34.56-84.48 33.28-33.28-0.64-65.28-15.36-88.32-39.68-21.76-23.04-33.28-51.84-32.64-81.28v-8.32h15.36v8.96c-0.64 25.6 9.6 50.56 28.16 71.04 20.48 21.76 48.64 34.56 78.08 35.2 27.52 0.64 53.76-9.6 73.6-29.44 20.48-19.84 32.64-48 32.64-76.8v-421.76H165.76v81.28h-15.36v-88.96c0-4.48 3.2-7.68 7.68-7.68h227.2c4.48 0 7.68 3.2 7.68 7.68v428.8c0 33.28-13.44 65.28-37.12 87.68zM967.68 58.24l-582.4 0.64c-4.48 0-7.68 3.2-7.68 7.68s3.2 7.68 7.68 7.68l574.72-0.64V495.36c0 58.24-47.36 106.24-106.24 106.24H825.6 272c-4.48 0-7.68 3.2-7.68 7.68s3.2 7.68 7.68 7.68l582.4-0.64c66.56 0 120.96-54.4 120.96-120.96v-429.44c0-1.92-0.64-3.84-1.92-5.12-1.28-1.28-3.2-2.56-5.76-2.56zM967.68 58.24l-582.4 0.64c-4.48 0-7.68 3.2-7.68 7.68s3.2 7.68 7.68 7.68l574.72-0.64V495.36c0 58.24-47.36 106.24-106.24 106.24H825.6 272c-4.48 0-7.68 3.2-7.68 7.68s3.2 7.68 7.68 7.68l582.4-0.64c66.56 0 120.96-54.4 120.96-120.96v-429.44c0-1.92-0.64-3.84-1.92-5.12-1.28-1.28-3.2-2.56-5.76-2.56zM526.72 563.84H524.8c-4.48 0-7.68 3.2-7.68 7.68s3.2 7.68 7.68 7.68h1.28c4.48 0 7.68-3.2 7.68-7.68 0.64-4.48-3.2-7.68-7.04-7.68zM929.92 116.48c-4.48 0-7.68 3.2-7.68 7.68v3.2c0 4.48 3.2 7.68 7.68 7.68s7.68-3.2 7.68-7.68v-3.2c0-4.48-3.2-7.68-7.68-7.68z m0 21.76c-4.48 0-7.68 3.2-7.68 7.68v3.2c0 4.48 3.2 7.68 7.68 7.68s7.68-3.2 7.68-7.68v-3.2c0-4.48-3.2-7.68-7.68-7.68z m0 21.12c-4.48 0-7.68 3.2-7.68 7.68v3.2c0 4.48 3.2 7.68 7.68 7.68s7.68-3.2 7.68-7.68v-3.2c0-4.48-3.2-7.68-7.68-7.68z m0 21.76c-4.48 0-7.68 3.2-7.68 7.68v3.2c0 4.48 3.2 7.68 7.68 7.68s7.68-3.2 7.68-7.68v-3.2c0-4.48-3.2-7.68-7.68-7.68z m0 21.12c-4.48 0-7.68 3.2-7.68 7.68v3.2c0 4.48 3.2 7.68 7.68 7.68s7.68-3.2 7.68-7.68v-3.2c0-3.84-3.2-7.68-7.68-7.68z m0 21.76c-4.48 0-7.68 3.2-7.68 7.68v3.2c0 4.48 3.2 7.68 7.68 7.68s7.68-3.2 7.68-7.68v-3.2c0-4.48-3.2-7.68-7.68-7.68z m0 21.76c-4.48 0-7.68 3.2-7.68 7.68v2.56c0 4.48 3.2 7.68 7.68 7.68s7.68-3.2 7.68-7.68v-3.2c0-3.84-3.2-7.04-7.68-7.04z m0 21.12c-4.48 0-7.68 3.2-7.68 7.68v3.2c0 4.48 3.2 7.68 7.68 7.68s7.68-3.2 7.68-7.68v-3.2c0-3.84-3.2-7.68-7.68-7.68z m0 21.76c-4.48 0-7.68 3.2-7.68 7.68v3.2c0 4.48 3.2 7.68 7.68 7.68s7.68-3.2 7.68-7.68v-3.2c0-4.48-3.2-7.68-7.68-7.68z m0 21.76c-4.48 0-7.68 3.2-7.68 7.68v3.2c0 4.48 3.2 7.68 7.68 7.68s7.68-3.2 7.68-7.68v-3.2c0-4.48-3.2-7.68-7.68-7.68z m0 21.12c-4.48 0-7.68 3.2-7.68 7.68v3.2c0 4.48 3.2 7.68 7.68 7.68s7.68-3.2 7.68-7.68v-3.2c0-3.84-3.2-7.68-7.68-7.68z m0 21.76c-4.48 0-7.68 3.2-7.68 7.68v3.2c0 4.48 3.2 7.68 7.68 7.68s7.68-3.2 7.68-7.68v-3.2c0-4.48-3.2-7.68-7.68-7.68z m0 21.12c-4.48 0-7.68 3.2-7.68 7.68v3.2c0 4.48 3.2 7.68 7.68 7.68s7.68-3.2 7.68-7.68v-3.2c0-3.84-3.2-7.68-7.68-7.68z m0 21.76c-4.48 0-7.68 3.2-7.68 7.68v3.2c0 4.48 3.2 7.68 7.68 7.68s7.68-3.2 7.68-7.68v-3.2c0-4.48-3.2-7.68-7.68-7.68z m0 21.76c-4.48 0-7.68 3.2-7.68 7.68V428.8c0 4.48 3.2 7.68 7.68 7.68s7.68-3.2 7.68-7.68v-3.2c0-4.48-3.2-7.68-7.68-7.68z m0 21.12c-4.48 0-7.68 3.2-7.68 7.68v3.2c0 4.48 3.2 7.68 7.68 7.68s7.68-3.2 7.68-7.68v-3.2c0-3.84-3.2-7.68-7.68-7.68z m0 21.76c-4.48 0-7.68 3.2-7.68 7.68v3.2c0 4.48 3.2 7.68 7.68 7.68s7.68-3.2 7.68-7.68v-3.2c0-4.48-3.2-7.68-7.68-7.68z m0 21.76c-4.48 0-7.68 3.2-7.68 7.68V492.8c0 4.48 3.2 7.68 7.68 7.68s7.68-3.2 7.68-7.68v-3.2c0-3.84-3.2-7.04-7.68-7.04z m-1.28 21.12c-3.2 0-6.4 2.56-7.68 5.76 0 0.64-0.64 1.92-0.64 2.56-1.28 3.84 1.28 8.32 5.12 8.96 3.84 1.28 8.32-1.28 8.96-5.12 0-1.28 0.64-1.92 0.64-3.2 0.64-3.84-1.92-8.32-5.76-8.96h-0.64z m-7.68 19.84c-2.56 0-5.12 1.28-6.4 3.84-0.64 0.64-0.64 1.28-1.28 2.56-1.92 3.84-1.28 8.32 2.56 10.24 3.84 1.92 8.32 1.28 10.24-2.56 0.64-0.64 1.28-1.92 1.92-2.56 1.92-3.84 0.64-8.32-3.2-10.24-1.28-0.64-2.56-1.28-3.84-1.28z m-12.8 17.28c-1.92 0-3.84 0.64-5.12 1.92l-1.92 1.92c-3.2 2.56-3.2 7.68-0.64 10.88s7.68 3.2 10.88 0.64l2.56-2.56c3.2-3.2 3.2-7.68 0-10.88-1.92-1.28-3.84-1.92-5.76-1.92z m-17.28 13.44c-1.28 0-2.56 0-3.84 1.28-0.64 0.64-1.28 0.64-2.56 1.28-3.84 1.92-5.12 6.4-3.2 10.24 1.92 3.84 6.4 5.12 10.24 3.2 1.28-0.64 1.92-1.28 3.2-1.28 3.84-1.92 5.12-6.4 3.2-10.24-1.92-3.2-4.48-4.48-7.04-4.48z m-19.84 7.04h-1.92c-0.64 0-1.92 0.64-2.56 0.64-3.84 0.64-7.04 4.48-6.4 8.96 0.64 3.84 4.48 7.04 8.96 6.4 1.28 0 1.92-0.64 3.2-0.64 3.84-0.64 6.4-5.12 5.76-8.96-0.64-3.84-3.84-6.4-7.04-6.4z m-21.76 1.92h-3.2c-4.48 0-7.68 3.2-7.68 7.68s3.2 7.68 7.68 7.68h3.2c4.48 0 7.68-3.2 7.68-7.68 0-3.84-3.2-7.68-7.68-7.68z m-21.12 0h-3.2c-4.48 0-7.68 3.2-7.68 7.68s3.2 7.68 7.68 7.68h3.2c4.48 0 7.68-3.2 7.68-7.68s-3.84-7.68-7.68-7.68z m-21.76 0h-3.2c-4.48 0-7.68 3.2-7.68 7.68s3.2 7.68 7.68 7.68h3.2c4.48 0 7.68-3.2 7.68-7.68 0-3.84-3.2-7.68-7.68-7.68z m-21.76 0h-3.2c-4.48 0-7.68 3.2-7.68 7.68s3.2 7.68 7.68 7.68h3.2c4.48 0 7.68-3.2 7.68-7.68 0-3.84-3.2-7.68-7.68-7.68z m-21.12 0h-3.2c-4.48 0-7.68 3.2-7.68 7.68s3.2 7.68 7.68 7.68h3.2c4.48 0 7.68-3.2 7.68-7.68s-3.84-7.68-7.68-7.68z m-21.76 0h-3.2c-4.48 0-7.68 3.2-7.68 7.68s3.2 7.68 7.68 7.68h3.2c4.48 0 7.68-3.2 7.68-7.68 0-3.84-3.2-7.68-7.68-7.68z m-21.12 0h-3.2c-4.48 0-7.68 3.2-7.68 7.68s3.2 7.68 7.68 7.68h3.2c4.48 0 7.68-3.2 7.68-7.68-0.64-3.84-3.84-7.68-7.68-7.68z m-21.76 0h-3.2c-4.48 0-7.68 3.2-7.68 7.68s3.2 7.68 7.68 7.68h3.2c4.48 0 7.68-3.2 7.68-7.68s-3.84-7.68-7.68-7.68z m-21.76 0h-3.2c-4.48 0-7.68 3.2-7.68 7.68s3.2 7.68 7.68 7.68h3.2c4.48 0 7.68-3.2 7.68-7.68 0-3.84-3.2-7.68-7.68-7.68z m-21.12 0.64h-3.2c-4.48 0-7.68 3.2-7.68 7.68s3.2 7.68 7.68 7.68h3.2c4.48 0 7.68-3.2 7.68-7.68s-3.84-7.68-7.68-7.68z m-21.76 0h-3.2c-4.48 0-7.68 3.2-7.68 7.68s3.2 7.68 7.68 7.68h3.2c4.48 0 7.68-3.2 7.68-7.68s-3.2-7.68-7.68-7.68z m-21.76 0h-3.2c-4.48 0-7.68 3.2-7.68 7.68s3.2 7.68 7.68 7.68h3.2c4.48 0 7.68-3.2 7.68-7.68s-3.2-7.68-7.68-7.68z m-21.12 0h-3.2c-4.48 0-7.68 3.2-7.68 7.68s3.2 7.68 7.68 7.68h3.2c4.48 0 7.68-3.2 7.68-7.68s-3.84-7.68-7.68-7.68z m-21.76 0h-3.2c-4.48 0-7.68 3.2-7.68 7.68s3.2 7.68 7.68 7.68h3.2c4.48 0 7.68-3.2 7.68-7.68s-3.2-7.68-7.68-7.68z m-21.76 0h-3.2c-4.48 0-7.68 3.2-7.68 7.68s3.2 7.68 7.68 7.68h3.2c4.48 0 7.68-3.2 7.68-7.68s-3.2-7.68-7.68-7.68zM929.92 96c-4.48 0-7.68 3.2-7.68 7.68v1.28c0 4.48 3.2 7.68 7.68 7.68s7.68-3.2 7.68-7.68v-1.28c0-3.84-3.2-7.68-7.68-7.68zM476.8 437.12c-24.96 0-45.44 20.48-45.44 45.44 0 24.96 20.48 45.44 45.44 45.44 24.96 0 45.44-20.48 45.44-45.44 0-24.96-20.48-45.44-45.44-45.44z m0 76.16c-16.64 0-30.08-13.44-30.08-30.08s13.44-30.08 30.08-30.08 30.08 13.44 30.08 30.08-13.44 30.08-30.08 30.08zM476.8 513.28c-4.48 0-7.68 3.2-7.68 7.68V823.68c0 4.48 3.2 7.68 7.68 7.68h226.56c3.2 0 5.76-1.92 7.04-4.48 1.28-2.56 0.64-6.4-1.92-8.32l-70.4-70.4 70.4-70.4c1.92-1.92 2.56-5.12 1.92-8.32-1.28-2.56-3.84-4.48-7.04-4.48H483.84v-144c0-4.48-3.2-7.68-7.04-7.68z m7.04 166.4H684.8L622.08 742.4c-1.28 1.28-1.92 3.2-1.92 5.12s0.64 3.84 1.92 5.12l62.72 62.72H483.84v-135.68zM424.32 96h-1.28c-4.48 0-7.68 3.2-7.68 7.68s3.2 7.68 7.68 7.68h1.28c4.48 0 7.68-3.2 7.68-7.68 0-3.84-3.2-7.68-7.68-7.68zM910.08 96h-3.2c-4.48 0-7.68 3.2-7.68 7.68s3.2 7.68 7.68 7.68h3.2c4.48 0 7.68-3.2 7.68-7.68 0-3.84-3.84-7.68-7.68-7.68z m-22.4 0h-3.2c-4.48 0-7.68 3.2-7.68 7.68s3.2 7.68 7.68 7.68h3.2c4.48 0 7.68-3.2 7.68-7.68 0-3.84-3.2-7.68-7.68-7.68z m-21.76 0h-3.2c-4.48 0-7.68 3.2-7.68 7.68s3.2 7.68 7.68 7.68h3.2c4.48 0 7.68-3.2 7.68-7.68 0-3.84-3.84-7.68-7.68-7.68z m-22.4 0h-3.2c-4.48 0-7.68 3.2-7.68 7.68s3.2 7.68 7.68 7.68h3.2c4.48 0 7.68-3.2 7.68-7.68 0-3.84-3.2-7.68-7.68-7.68z m-21.76 0h-3.2c-4.48 0-7.68 3.2-7.68 7.68s3.2 7.68 7.68 7.68h3.2c4.48 0 7.68-3.2 7.68-7.68 0-3.84-3.84-7.68-7.68-7.68z m-22.4 0h-3.2c-4.48 0-7.68 3.2-7.68 7.68s3.2 7.68 7.68 7.68h3.2c4.48 0 7.68-3.2 7.68-7.68 0-3.84-3.2-7.68-7.68-7.68z m-21.76 0h-3.2c-4.48 0-7.68 3.2-7.68 7.68s3.2 7.68 7.68 7.68h3.2c4.48 0 7.68-3.2 7.68-7.68 0-3.84-3.2-7.68-7.68-7.68z m-22.4 0h-3.2c-4.48 0-7.68 3.2-7.68 7.68s3.2 7.68 7.68 7.68h3.2c4.48 0 7.68-3.2 7.68-7.68 0-3.84-3.2-7.68-7.68-7.68z m-21.76 0h-3.2c-4.48 0-7.68 3.2-7.68 7.68s3.2 7.68 7.68 7.68h3.2c4.48 0 7.68-3.2 7.68-7.68 0-3.84-3.2-7.68-7.68-7.68z m-22.4 0h-3.2c-4.48 0-7.68 3.2-7.68 7.68s3.2 7.68 7.68 7.68h3.2c4.48 0 7.68-3.2 7.68-7.68 0-3.84-3.2-7.68-7.68-7.68z m-21.76 0h-3.2c-4.48 0-7.68 3.2-7.68 7.68s3.2 7.68 7.68 7.68h3.2c4.48 0 7.68-3.2 7.68-7.68 0-3.84-3.2-7.68-7.68-7.68z m-21.76 0h-3.2c-4.48 0-7.68 3.2-7.68 7.68s3.2 7.68 7.68 7.68h3.2c4.48 0 7.68-3.2 7.68-7.68-0.64-3.84-3.84-7.68-7.68-7.68z m-22.4 0h-3.2c-4.48 0-7.68 3.2-7.68 7.68s3.2 7.68 7.68 7.68h3.2c4.48 0 7.68-3.2 7.68-7.68 0-3.84-3.2-7.68-7.68-7.68z m-21.76 0h-3.2c-4.48 0-7.68 3.2-7.68 7.68s3.2 7.68 7.68 7.68h3.2c4.48 0 7.68-3.2 7.68-7.68-0.64-3.84-3.84-7.68-7.68-7.68z m-22.4 0h-3.2c-4.48 0-7.68 3.2-7.68 7.68s3.2 7.68 7.68 7.68h3.2c4.48 0 7.68-3.2 7.68-7.68 0-3.84-3.2-7.68-7.68-7.68z m-21.76 0H576c-4.48 0-7.68 3.2-7.68 7.68s3.2 7.68 7.68 7.68h3.2c4.48 0 7.68-3.2 7.68-7.68-0.64-3.84-3.84-7.68-7.68-7.68z m-22.4 0h-3.2c-4.48 0-7.68 3.2-7.68 7.68s3.2 7.68 7.68 7.68h3.2c4.48 0 7.68-3.2 7.68-7.68 0-3.84-3.2-7.68-7.68-7.68z m-21.76 0h-3.2c-4.48 0-7.68 3.2-7.68 7.68s3.2 7.68 7.68 7.68h3.2c4.48 0 7.68-3.2 7.68-7.68-0.64-3.84-3.84-7.68-7.68-7.68z m-22.4 0h-3.2c-4.48 0-7.68 3.2-7.68 7.68s3.2 7.68 7.68 7.68h3.2c4.48 0 7.68-3.2 7.68-7.68 0-3.84-3.2-7.68-7.68-7.68z m-21.76 0h-3.2c-4.48 0-7.68 3.2-7.68 7.68s3.2 7.68 7.68 7.68h3.2c4.48 0 7.68-3.2 7.68-7.68-0.64-3.84-3.84-7.68-7.68-7.68z m-22.4 0h-3.2c-4.48 0-7.68 3.2-7.68 7.68s3.2 7.68 7.68 7.68h3.2c4.48 0 7.68-3.2 7.68-7.68 0-3.84-3.2-7.68-7.68-7.68z m-21.76 0h-3.2c-4.48 0-7.68 3.2-7.68 7.68s3.2 7.68 7.68 7.68h3.2c4.48 0 7.68-3.2 7.68-7.68-0.64-3.84-3.84-7.68-7.68-7.68zM930.56 96h-1.28c-4.48 0-7.68 3.2-7.68 7.68s3.2 7.68 7.68 7.68h1.28c4.48 0 7.68-3.2 7.68-7.68 0-3.84-3.2-7.68-7.68-7.68zM385.28 96H158.08c-4.48 0-7.68 3.2-7.68 7.68s3.2 7.68 7.68 7.68h227.2c4.48 0 7.68-3.2 7.68-7.68 0-3.84-3.2-7.68-7.68-7.68zM740.48 20.48H437.76c-4.48 0-7.68 3.2-7.68 7.68v38.4c0 4.48 3.2 7.68 7.68 7.68h302.72c4.48 0 7.68-3.2 7.68-7.68v-38.4c0-4.48-3.2-7.68-7.68-7.68z m-295.04 14.72h288v23.68h-288v-23.68zM627.2-55.68H551.04c-3.2 0-5.76 1.92-7.04 4.48l-37.12 75.52c-1.28 2.56-1.28 5.12 0.64 7.04 1.28 1.92 3.84 3.84 6.4 3.84h151.04c2.56 0 5.12-1.28 6.4-3.84 1.28-1.92 1.28-5.12 0.64-7.04L634.24-51.2c-1.28-2.56-3.84-4.48-7.04-4.48z m-71.68 15.36h67.2l30.08 60.8H525.44l30.08-60.8zM627.2-92.8H551.04c-4.48 0-7.68 3.2-7.68 7.68v37.12c0 4.48 3.2 7.68 7.68 7.68H627.2c4.48 0 7.68-3.2 7.68-7.68v-37.12c0-4.48-3.2-7.68-7.68-7.68z m-68.48 14.72h61.44v22.4h-61.44v-22.4z"  horiz-adv-x="1024" />

    
    <glyph glyph-name="ziyuan" unicode="&#58883;" d="M587.83008 619.425947a235.132032 235.132032 0 0 0 235.132033-235.132032 249.533869 249.533869 0 0 0-1.469576-25.864523l170.470724-170.764639A1046.631458 1046.631458 0 0 1 1175.660161 384.293915c-161.065442 220.43628-365.336395 352.698048-587.830081 352.698048a562.553387 562.553387 0 0 1-129.616532-15.577497l103.752009-103.458094a249.533869 249.533869 0 0 0 25.864523 1.469575zM76.123995 812.822044L255.706085 633.239954A987.554535 987.554535 0 0 1 0 384.293915c161.065442-220.730195 365.336395-352.698048 587.83008-352.698048a575.485649 575.485649 0 0 1 223.375431 46.144661l205.740528-205.740528L1099.536165-44.528129l-940.528128 940.528129zM352.698048 384.293915a231.311137 231.311137 0 0 0 32.918485 119.035591l88.174512-88.174512a113.745121 113.745121 0 0 1-4.408726-29.391504 117.566016 117.566016 0 0 1 117.566016-117.566016 111.98163 111.98163 0 0 1 29.391504 4.408726l45.850747-45.850746L705.396096 183.256028a235.132032 235.132032 0 0 0-352.698048 202.507462z"  horiz-adv-x="1175" />

    


  </font>
</defs>
</svg>
